<svg xmlns="http://www.w3.org/2000/svg" viewBox="0 0 128 128"><defs><style>.cls-1{fill:#55b4e2;}.cls-2{fill:#fff;}</style></defs><title>资源 4</title><g id="图层_2" data-name="图层 2"><g id="图层_1-2" data-name="图层 1"><path class="cls-1" d="M64,0a64,64,0,1,0,64,64A64,64,0,0,0,64,0Z"/><path class="cls-2" d="M99.61,76.9a86.09,86.09,0,0,1-33,6.75A87,87,0,0,1,23.38,72.18c-1.07-.63-1.87.48-1,1.29A64,64,0,0,0,65.62,90C77.56,90,91.43,86.2,101,79.14,102.59,78,101.23,76.22,99.61,76.9Z"/><path class="cls-2" d="M109.07,71.47c-1-1.28-10-2.39-15.49,1.46-.85.59-.7,1.4.23,1.29,3.09-.37,10-1.19,11.17.38s-1.35,8-2.5,10.9c-.35.87.4,1.23,1.18.57C108.79,81.78,110.12,72.78,109.07,71.47Z"/><path class="cls-2" d="M96.27,59.87a5.25,5.25,0,0,1-2.7.59,6.21,6.21,0,0,1-3.49-.86,2.82,2.82,0,0,1-1.33-2.37H82.87a6.87,6.87,0,0,0,2.91,5.65c1.81,1.28,4.41,1.93,7.79,1.93a11.07,11.07,0,0,0,6.87-2,6.15,6.15,0,0,0,2.61-5.18,5.28,5.28,0,0,0-1.8-4.43q-1.78-1.41-7.11-2.59a21,21,0,0,1-3.73-1.11c-.71-.36-1.07-.77-1.07-1.26a1.83,1.83,0,0,1,.94-1.6,5.16,5.16,0,0,1,2.61-.57,4.65,4.65,0,0,1,2.78.76,2.39,2.39,0,0,1,1,2h5.72a6.06,6.06,0,0,0-2.74-5.18,12.07,12.07,0,0,0-7.21-2,9.75,9.75,0,0,0-6.39,2A6.51,6.51,0,0,0,83.67,49a4.87,4.87,0,0,0,1.88,4.25q1.86,1.4,7.43,2.64a14.92,14.92,0,0,1,3.32,1,1.5,1.5,0,0,1,1,1.27A1.87,1.87,0,0,1,96.27,59.87Z"/><polygon class="cls-2" points="62.21 64.25 65.66 47.96 69.02 64.25 74.92 64.25 81.27 42.34 75.44 42.34 71.89 58.47 68.64 42.34 62.86 42.34 59.6 58.43 59.58 58.43 56.08 42.34 49.95 42.34 56.32 64.25 62.21 64.25"/><path class="cls-2" d="M40.63,50.21a8.27,8.27,0,0,1-2.47.69l-3.81.52a8,8,0,0,0-4.88,2.27,6.75,6.75,0,0,0-1.67,4.8,6,6,0,0,0,1.85,4.58,6.85,6.85,0,0,0,4.89,1.74A8.83,8.83,0,0,0,41.6,61.6v0a14.41,14.41,0,0,0,.51,2.6v0h6.24v-.8a1.84,1.84,0,0,1-1-.94,6.2,6.2,0,0,1-.24-2.07V48.18a5.5,5.5,0,0,0-2.37-4.7,10.7,10.7,0,0,0-6.46-1.73q-4.72,0-7.15,1.91a7.35,7.35,0,0,0-2.62,5.77H34.1a3,3,0,0,1,1-2.28,3.78,3.78,0,0,1,2.58-.81,5.31,5.31,0,0,1,2.84.63,2,2,0,0,1,.77,2.51A1.33,1.33,0,0,1,40.63,50.21Zm.86,3.43v2.52a4.94,4.94,0,0,1-.22,1.44,3.11,3.11,0,0,1-.54,1.13,5.51,5.51,0,0,1-4.43,2,2.58,2.58,0,0,1-2-.74,2.85,2.85,0,0,1-.71-2A2.59,2.59,0,0,1,34.4,56a4.44,4.44,0,0,1,2.3-1l2.13-.4A9.36,9.36,0,0,0,41.49,53.64Z"/></g></g></svg>