<svg xmlns="http://www.w3.org/2000/svg" viewBox="0 0 128 128"><defs><style>.cls-1{fill:#55b4e2;}.cls-2{fill:#fff;}</style></defs><title>资源 5</title><g id="图层_2" data-name="图层 2"><g id="图层_1-2" data-name="图层 1"><path class="cls-1" d="M64,0a64,64,0,1,0,64,64A64,64,0,0,0,64,0Z"/><path class="cls-2" d="M60.18,31.19a27.71,27.71,0,0,0-10.44,4,4.25,4.25,0,0,1-.81.51A20.35,20.35,0,0,0,47.2,37a26.07,26.07,0,0,0-7.06,9.35,31.45,31.45,0,0,0-1.75,5.26c-.23.93-.57,1.35-1.08,1.35-.87,0-5.4,1.93-6.79,2.89a31.28,31.28,0,0,0-4,3.62c-2.37,3.24-2.81,4-3.57,6.41a18.93,18.93,0,0,0-.92,6A19.4,19.4,0,0,0,35.55,90.37c3.33.93,2.36.91,28.37.91,21.86,0,24.11,0,25.58-.28a26.18,26.18,0,0,0,4.76-1.27,4.58,4.58,0,0,1,.8-.39A20.59,20.59,0,0,0,99,86.82a19.65,19.65,0,0,0,7-14.93,23.5,23.5,0,0,0-1.1-6.28,2.5,2.5,0,0,1-.25-.71A16.63,16.63,0,0,0,103,61.66c-.27-.35-.53-.7-.77-1.06a13.85,13.85,0,0,0-3.13-3.3,14,14,0,0,0-3.53-2.46,4.29,4.29,0,0,1-.78-.37A39.83,39.83,0,0,0,90.67,53a27,27,0,0,0-3.12-.27,16.9,16.9,0,0,0-6.3.64L79.53,54a19.12,19.12,0,0,0-4.11,2.24,114.6,114.6,0,0,0-8.91,8c-.94,1-12.11,11.72-15.8,15.23-.92.88-2.31,2.24-3.08,3l-1.4,1.4-2.8-.12c-1.44,0-2.87-.16-4.29-.34A11.53,11.53,0,0,1,30,75a16.68,16.68,0,0,1-.07-5.81A13,13,0,0,1,33.82,63a13.34,13.34,0,0,1,7.66-2.72c3,0,6.39,1.56,9.37,4.34.57.52,1.42,1.26,1.85,1.63s1.3,1.11,1.86,1.63a4.59,4.59,0,0,0,1.26,1c.3,0,1-.55,3.35-2.89a17.61,17.61,0,0,0,2-2.24,9.15,9.15,0,0,0-1.63-1.6c-.91-.78-1.77-1.51-1.92-1.69-.32-.37-3.33-2.81-4.88-4a21.13,21.13,0,0,0-5.26-2.76A5.36,5.36,0,0,1,46,52.9a20.66,20.66,0,0,1,1.48-4.2,20.58,20.58,0,0,1,4.29-5.53,17.46,17.46,0,0,1,6.87-3.8l1.77-.45a13.33,13.33,0,0,1,3.54-.3,13.33,13.33,0,0,1,4.21.45,17.94,17.94,0,0,1,7.89,4A20.68,20.68,0,0,1,80,47.75a15.11,15.11,0,0,0,.92,1.44A5.63,5.63,0,0,0,82.1,49a28.42,28.42,0,0,1,3.71-.35c2.92-.13,3-.17,2.38-1.35A11.31,11.31,0,0,1,87.65,46a6.38,6.38,0,0,0-.59-1.27,6.24,6.24,0,0,1-.47-.84,31,31,0,0,0-3.33-4.47,26.49,26.49,0,0,0-7.39-5.56L74,32.93a27.14,27.14,0,0,0-3.06-1,27.63,27.63,0,0,0-10.72-.71ZM88.89,60.5a11.25,11.25,0,0,1,6.63,3.92,10.26,10.26,0,0,1,2.68,7.3,7.51,7.51,0,0,1-.37,3.52,11.1,11.1,0,0,1-2,3.93,12,12,0,0,1-6.24,4.07,33.79,33.79,0,0,1-3.47.39c-3.11.2-28.39.21-28.51,0a45.83,45.83,0,0,1,4-4.08l5.17-5c1.82-1.79,8.79-8.45,9.78-9.34.37-.34.72-.69,1.06-1a20,20,0,0,1,3.52-2.53,14.91,14.91,0,0,1,2.16-.87c.69-.2,1.34-.41,1.42-.44a15,15,0,0,1,4.19.19Z"/></g></g></svg>