<svg xmlns="http://www.w3.org/2000/svg" viewBox="0 0 128 128"><defs><style>.cls-1{fill:#55b4e2;}.cls-2{fill:#fff;}</style></defs><title>资源 2</title><g id="图层_2" data-name="图层 2"><g id="图层_1-2" data-name="图层 1"><path class="cls-1" d="M64,0a64,64,0,1,0,64,64A64,64,0,0,0,64,0Z"/><path class="cls-2" d="M55.48,87.86C52.89,89.72,45.05,95.18,41.59,96c-5,1.22-9.82-2.74-12.68-7.83l26.35-.92h0a.35.35,0,0,1,.33.23s.08.15-.12.33ZM56,85.17a.33.33,0,0,1-.26.18c-4.1,0-19.38.08-19.77,0a16.16,16.16,0,0,1-5-1.1A15.62,15.62,0,0,1,21.9,65s22.42,12,34,19.8h0s.23.18.1.39Zm2.13-3.4a.27.27,0,0,1-.08.32.3.3,0,0,1-.35.06c-3.68-1.83-19.5-9.87-26-16.24a12.61,12.61,0,0,1-4.34-8.59c-.54-7.13,7-14.24,7-14.24A196.06,196.06,0,0,1,58.12,81.77Zm3.6-2.11a.33.33,0,0,1-.25.33s-.14.06-.31-.12C58.7,76.31,47.24,59.33,44.91,49a16.08,16.08,0,0,1,0-8.36,12.21,12.21,0,0,1,8.63-8.13s3.09-.7,4.24-.81c0,0,7.77,10.05,4,48Zm4.74.31s-.17,0-.19-.29h0c-3.8-37.92,4-48,4-48,2.14.3,4.15.81,4.15.81a12.22,12.22,0,0,1,8.71,8.13c1.21,3.37,0,8.35,0,8.35C80.76,59.29,69.38,76.18,66.85,79.84h0a.31.31,0,0,1-.39.14ZM70,82.09a.39.39,0,0,1-.07-.42h0a195.25,195.25,0,0,1,23.8-38.58s7.43,6.82,7,14.2a12.71,12.71,0,0,1-4.34,8.63c-6.5,6.33-22.21,14.32-26,16.19a.33.33,0,0,1-.36,0Zm16.36,14C82.67,95,75,89.68,72.5,87.87h0a.37.37,0,0,1-.1-.36c.06-.17.29-.2.29-.2h0l26.39.92c-5.93,10.17-12.73,7.85-12.73,7.85Zm19.16-19.93A15.47,15.47,0,0,1,97,84.26a15.83,15.83,0,0,1-4.54,1c-.39.07-16.09,0-20.23,0h0c-.16,0-.27-.2-.27-.2a.34.34,0,0,1,.13-.38c11.58-7.82,34-19.84,34-19.84a15.94,15.94,0,0,1-.58,11.22Z"/></g></g></svg>