<svg xmlns="http://www.w3.org/2000/svg" viewBox="0 0 128 128"><defs><style>.cls-1{fill:#55b4e2;}.cls-2{fill:#fff;}</style></defs><title>资源 6</title><g id="图层_2" data-name="图层 2"><g id="图层_1-2" data-name="图层 1"><path class="cls-1" d="M64,0a64,64,0,1,0,64,64A64,64,0,0,0,64,0Z"/><path class="cls-2" d="M86.33,91.19c-.3,0-.59,0-.88,0h.45a15.51,15.51,0,0,1-11.32-5.34h-.06l-.27-.4-.18-.21L73.24,84l0,0-.58-.83v0L64.81,71.81h0a5.36,5.36,0,0,0-4.29-2.14,5.3,5.3,0,0,0-2.65.71,8.27,8.27,0,0,1,.62,1L71.25,90.88h0a7.27,7.27,0,0,0,9.08,2.95,11.27,11.27,0,0,1-17.53-2.09h0L57.12,83A17.7,17.7,0,0,1,42.21,91.2l-.44,0h0a20.43,20.43,0,0,1-1.7-40.75,24.77,24.77,0,0,1,48.62,1.1,19.91,19.91,0,0,1-2.36,39.67Zm0-31.78a11.74,11.74,0,0,0-6.39,1.88,16.65,16.65,0,1,0-32.32-5.61,16.79,16.79,0,0,0,.55,4.23,12.23,12.23,0,0,0-6-1.53,12.37,12.37,0,1,0,0,24.74h0A9.68,9.68,0,0,0,51.75,75c0-.26.08-.51.1-.77a7.55,7.55,0,0,0,0-.83,8.1,8.1,0,0,0-3.65-6.76,9.36,9.36,0,0,1,2.06-.24,9.14,9.14,0,0,1,7,3.33,10.12,10.12,0,0,1,16.12,1.5h0l5.41,8a9.09,9.09,0,0,0,7.43,3.83v0a11.88,11.88,0,0,0,0-23.75Z"/></g></g></svg>