<svg xmlns="http://www.w3.org/2000/svg" viewBox="0 0 128 128"><defs><style>.cls-1{fill:#55b4e2;}.cls-2{fill:#fff;}</style></defs><title>资源 9</title><g id="图层_2" data-name="图层 2"><g id="图层_1-2" data-name="图层 1"><path class="cls-1" d="M64,0a64,64,0,1,0,64,64A64,64,0,0,0,64,0Z"/><path class="cls-2" d="M87.54,50.05a23.83,23.83,0,0,0-47.07,0,20.2,20.2,0,0,0,1.72,40.32H85.8a3.85,3.85,0,1,0,0-7.69H42.19a12.51,12.51,0,0,1,0-25,13,13,0,0,1,1.39.08l4.28.49V53.82a16.15,16.15,0,1,1,32.29,0v4.42l4.28-.5a12.5,12.5,0,0,1,12.3,18.5A3.85,3.85,0,1,0,103.45,80,20.19,20.19,0,0,0,87.54,50.05Z"/><circle class="cls-2" cx="64" cy="48.92" r="4.32"/><circle class="cls-2" cx="64" cy="61.53" r="4.32"/><circle class="cls-2" cx="64" cy="74.14" r="4.32"/></g></g></svg>