<svg xmlns="http://www.w3.org/2000/svg" viewBox="0 0 128 128"><defs><style>.cls-1{fill:#55b4e2;}.cls-2{fill:#fff;}</style></defs><title>资源 8</title><g id="图层_2" data-name="图层 2"><g id="图层_1-2" data-name="图层 1"><path class="cls-1" d="M64,0a64,64,0,1,0,64,64A64,64,0,0,0,64,0Z"/><path class="cls-2" d="M36.42,78.28a3.92,3.92,0,0,1-3.11-3.81V53.53a4.07,4.07,0,0,1,3.11-3.81l19.34-4.21,2-8.29H35.33A14.25,14.25,0,0,0,21,51.49V76.24A14.47,14.47,0,0,0,35.33,90.65H57.78l-2-8.3ZM92.67,37.22H70.09l2,8.29,19.35,4.21a4,4,0,0,1,3.11,3.81V74.47a4.09,4.09,0,0,1-3.11,3.81L72.11,82.49l-2,8.29H92.67A14.37,14.37,0,0,0,107,76.38V51.49A14.43,14.43,0,0,0,92.67,37.22ZM55.76,62.91H72.25v2H55.76Z"/></g></g></svg>