<svg xmlns="http://www.w3.org/2000/svg" viewBox="0 0 128 128"><defs><style>.cls-1{fill:#55b4e2;}.cls-2{fill:#fff;}</style></defs><title>资源 7</title><g id="图层_2" data-name="图层 2"><g id="图层_1-2" data-name="图层 1"><path class="cls-1" d="M64,0a64,64,0,1,0,64,64A64,64,0,0,0,64,0Z"/><path class="cls-2" d="M60.51,30.42a22.25,22.25,0,0,0-8,3.28,22.91,22.91,0,0,0-7.26,8.6,26,26,0,0,0-2,10l0,.84L41,53.49a19.52,19.52,0,0,0-6.55,1.89A21.4,21.4,0,0,0,22.62,69.59a30.89,30.89,0,0,0-.1,9.16,21,21,0,0,0,9,13.1,23.37,23.37,0,0,0,6.24,2.81c.62.15,1.41.34,1.75.44a24.78,24.78,0,0,0,3.7.19,16.72,16.72,0,0,0,4.7-.42,21.41,21.41,0,0,0,9.24-4.74c.94-.86,6.93-7.49,12.86-14.25,1.08-1.25,2.53-2.9,3.22-3.69s2.06-2.35,3.06-3.49c2.73-3.12,4.56-4.29,7.61-4.83a10.63,10.63,0,0,1,10.74,5.45A13.47,13.47,0,0,1,96,74.71,5.15,5.15,0,0,0,98.56,79a3.6,3.6,0,0,0,2.52.54,4.4,4.4,0,0,0,2.5-.44c3-1.58,3.58-5,1.91-10.78a21.35,21.35,0,0,0-10-12.27,25.2,25.2,0,0,0-7.61-2.39,22,22,0,0,1-2.29-.34c-.25-.06-.31-.56-.33-2.74a16,16,0,0,0-.48-4.33A21.57,21.57,0,0,0,68.48,30.48a30.89,30.89,0,0,0-8-.06Zm6.55,10.17a10.79,10.79,0,0,1,7.33,7,12.9,12.9,0,0,1-.06,6.53,10.09,10.09,0,0,1-5.81,6.33,7.17,7.17,0,0,1-4.08.77,10.66,10.66,0,0,1-3-.25,20.57,20.57,0,0,1-4-2.14,13.92,13.92,0,0,1-3-4.66,13,13,0,0,1,0-6.6,10.59,10.59,0,0,1,12.71-7ZM47.57,64.79a10.59,10.59,0,0,1,4.81,14.37,10.35,10.35,0,0,1-10.93,5.43,9.07,9.07,0,0,1-4.32-1.79,10.43,10.43,0,0,1-4.08-11,11,11,0,0,1,6.55-7.39A9.1,9.1,0,0,1,43.78,64a6.67,6.67,0,0,1,3.79.83ZM99,85.57a6,6,0,0,0-2.73,2.77,6.36,6.36,0,0,0,0,3.89,5,5,0,0,0,4.82,3.06,4.84,4.84,0,0,0,3.94-1.79,4.75,4.75,0,0,0,.87-5.22,4.87,4.87,0,0,0-4.56-3.12,3.89,3.89,0,0,0-2.39.41Z"/></g></g></svg>