<svg xmlns="http://www.w3.org/2000/svg" viewBox="0 0 128 128"><defs><style>.cls-1{fill:#55b4e2;}.cls-2{fill:#fff;}</style></defs><title>资源 3</title><g id="图层_2" data-name="图层 2"><g id="图层_1-2" data-name="图层 1"><path class="cls-1" d="M64,0a64,64,0,1,0,64,64A64,64,0,0,0,64,0Z"/><path class="cls-2" d="M74.73,34V76.22c0,4.67-3.78,7.1-8.45,7.1h0c-4.67,0-8.45-2.43-8.45-7.1V39.63H52.16v5.63H46.58V51H41V76.5c0,14,11.32,22,25.28,22h0c14,0,25.28-8.06,25.28-22V34Z"/><rect class="cls-2" x="52.43" y="33.96" width="3.59" height="3.59"/><rect class="cls-2" x="46.84" y="39.87" width="3.59" height="3.59"/><rect class="cls-2" x="47.22" y="34.9" width="2.82" height="2.82"/><rect class="cls-2" x="47.74" y="29.48" width="2.31" height="2.31"/><rect class="cls-2" x="36.44" y="40.77" width="2.31" height="2.31"/><rect class="cls-2" x="36.81" y="35.41" width="1.77" height="1.77"/><rect class="cls-2" x="42.48" y="29.75" width="1.77" height="1.77"/><rect class="cls-2" x="37.05" y="29.99" width="1.29" height="1.29"/><rect class="cls-2" x="42.21" y="34.9" width="2.41" height="2.41"/><rect class="cls-2" x="41.63" y="40.26" width="2.82" height="2.82"/><rect class="cls-2" x="41.24" y="45.43" width="3.59" height="3.59"/></g></g></svg>